<svg xmlns="http://www.w3.org/2000/svg" width="75" height="75"><defs><filter id="a" x="0" y="0" width="75" height="75" filterUnits="userSpaceOnUse"><feFlood result="flood" flood-color="#444" flood-opacity=".83"/><feComposite result="composite" operator="in" in2="SourceGraphic"/><feBlend result="blend" in2="SourceGraphic"/></filter></defs><circle cx="37.5" cy="37.5" r="37.5" filter="url(#a)" fill="#fff"/><path data-name="sale sign" d="M52.4 52H23.6a3.611 3.611 0 01-3.6-3.621V31.894A4.217 4.217 0 0124 28h2l10.192-8.013a2.4 2.4 0 114.722-.581 2.38 2.38 0 01-.323 1.184L50 28h2c1.988 0 4 1.483 4 3.482v16.9A3.61 3.61 0 0152.4 52zm-13.114-7.745h4.837v-.914h-3.816v-6.865h-1.021v7.779zm-6.923 0l.847-2.357h3.25l.891 2.357h1.165l-3.153-7.779h-1.108l-2.973 7.779h1.081zm-7.153-6.866a2 2 0 00-.332 1.1 1.8 1.8 0 00.271.97 2.094 2.094 0 00.824.726 7 7 0 001.487.486 13.455 13.455 0 011.372.379 1.6 1.6 0 01.7.458 1 1 0 01.214.638 1.126 1.126 0 01-.218.666 1.433 1.433 0 01-.665.482 2.809 2.809 0 01-1.031.176 2.9 2.9 0 01-1.183-.232 1.744 1.744 0 01-.775-.607 2.174 2.174 0 01-.319-.962l-.965.084a2.634 2.634 0 00.424 1.4 2.459 2.459 0 001.11.926 4.4 4.4 0 001.755.307 3.509 3.509 0 001.486-.3 2.323 2.323 0 001.013-.853 2.12 2.12 0 00.352-1.167 1.934 1.934 0 00-.322-1.105 2.36 2.36 0 00-1-.792 10.248 10.248 0 00-1.707-.5 4.027 4.027 0 01-1.538-.555.889.889 0 01-.3-.689 1.031 1.031 0 01.423-.826 2.14 2.14 0 011.348-.342 2.073 2.073 0 011.342.374 1.584 1.584 0 01.534 1.106l.984-.075a2.356 2.356 0 00-.379-1.223 2.19 2.19 0 00-1.008-.819 3.849 3.849 0 00-1.513-.277 3.649 3.649 0 00-1.416.265 2.058 2.058 0 00-.968.781zM40 21a2.668 2.668 0 01-1.486.813 2.389 2.389 0 01-1.93-.988L27 28h22zm11.123 22.341h-4.744v-2.65h4.275v-.914h-4.275v-2.386h4.566v-.915h-5.587v7.779h5.765v-.914zm-16.346-6.054q.186.637.549 1.621l.814 2.151H33.5l.858-2.277a10.621 10.621 0 00.419-1.495z" fill-rule="evenodd" fill="#fff"/></svg>