<svg xmlns="http://www.w3.org/2000/svg" width="75" height="75"><defs><filter id="a" x="0" y="0" width="75" height="75" filterUnits="userSpaceOnUse"><feFlood result="flood" flood-color="#59b7c2" flood-opacity=".9"/><feComposite result="composite" operator="in" in2="SourceGraphic"/><feBlend result="blend" in2="SourceGraphic"/></filter></defs><circle cx="37.5" cy="37.5" r="37.5" filter="url(#a)" fill="#fff"/><path data-name="scan label" d="M23.2 26h28.6a2.2 2.2 0 012.2 2.2v18.6a2.2 2.2 0 01-2.2 2.2H23.2a2.2 2.2 0 01-2.2-2.2V28.2a2.2 2.2 0 012.2-2.2zm1.1 3.295h2.2V45.7h-2.2V29.3zm3.3 0h1.1v14.281h-1.1V29.3zm3.3 0H32v14.281h-1.1V29.3zm2.2 0h2.2v14.281h-2.2V29.3zm3.3 0h1.1v14.281h-1.1V29.3zm3.3 0h2.2v14.281h-2.2V29.3zm3.3 0h1.1v14.281H43V29.3zm3.3 0h1.1v14.281h-1.1V29.3zm2.2 0h2.2V45.7h-2.2V29.3z" fill-rule="evenodd" fill="#fff"/></svg>