<svg xmlns="http://www.w3.org/2000/svg" width="14" height="14.28"><defs><filter id="a" x="465" y="1396.72" width="12" height="11.28" filterUnits="userSpaceOnUse"><feFlood result="flood" flood-color="#db6471"/><feComposite result="composite" operator="in" in2="SourceGraphic"/><feBlend result="blend" in2="SourceGraphic"/></filter><filter id="b" x="473" y="1405" width="5" height="5" filterUnits="userSpaceOnUse"><feFlood result="flood" flood-color="#de727e"/><feComposite result="composite" operator="in" in2="SourceGraphic"/><feBlend result="blend" in2="SourceGraphic"/></filter></defs><path d="M471 1408s-6-2.66-6-8c0-2 2-4 4-3a3.552 3.552 0 012 3 3.552 3.552 0 012-3c2-1 4 1 4 3 0 5.34-6 8-6 8z" transform="translate(-465 -1396.72)" filter="url(#a)" fill-rule="evenodd"/><g fill="#fff"><circle cx="10.5" cy="10.78" r="3.5"/><path d="M476 1408v2h-1v-2h-2v-1h2v-2h1v2h2v1h-2z" transform="translate(-465 -1396.72)" filter="url(#b)" fill-rule="evenodd"/></g></svg>