<svg xmlns="http://www.w3.org/2000/svg" width="47.445" height="47.446"><path d="M38.271 14.645V9.331c0-3.418-2.727-6.2-6.145-6.2H15.373a6.208 6.208 0 00-6.201 6.2v5.313H2.698A2.698 2.698 0 000 17.342v5.865a2.697 2.697 0 002.698 2.698h.804L6.45 42.1a2.698 2.698 0 002.654 2.214h29.292c1.304 0 2.42-.932 2.654-2.215l2.946-16.194h.75a2.697 2.697 0 002.698-2.698v-5.865a2.698 2.698 0 00-2.698-2.698l-6.475.001zM14.17 9.331c0-.652.551-1.202 1.203-1.202h16.756c.651 0 1.146.55 1.146 1.202v5.313H14.17V9.331zm3.732 25.341a1.867 1.867 0 01-1.866 1.877 1.868 1.868 0 01-1.866-1.877V24.368a1.867 1.867 0 113.732 0v10.304zm7.718 0c0 1.037-.83 1.877-1.866 1.877a1.869 1.869 0 01-1.867-1.877V24.368c0-1.037.831-1.876 1.867-1.876 1.037 0 1.866.841 1.866 1.876v10.304zm7.718 0c0 1.037-.83 1.877-1.865 1.877a1.868 1.868 0 01-1.867-1.877V24.368c0-1.037.83-1.876 1.867-1.876 1.035 0 1.865.841 1.865 1.876v10.304z"/></svg>