<svg width="253" height="61" fill="none" xmlns="http://www.w3.org/2000/svg"><g filter="url(#filter0_d)" fill-rule="evenodd" clip-rule="evenodd"><path d="M14.88 31.47l-2.38 4.48V51H4.8V2h7.7v21.35L22.58 2h7.7L19.57 23.84 30.28 51h-7.91l-7.49-19.53zm26.27 8.26c0 1.773.361 3.022 1.085 3.745.723.723 1.691 1.085 2.905 1.085 1.213 0 2.181-.362 2.905-1.085.723-.723 1.085-1.972 1.085-3.745V13.27c0-1.773-.362-3.022-1.085-3.745-.724-.723-1.692-1.085-2.905-1.085-1.214 0-2.182.362-2.905 1.085-.724.723-1.085 1.972-1.085 3.745v26.46zm-7.7-25.97c0-3.967 1.003-7.012 3.01-9.135 2.007-2.123 4.9-3.185 8.68-3.185 3.78 0 6.673 1.062 8.68 3.185 2.007 2.123 3.01 5.168 3.01 9.135v25.48c0 3.967-1.003 7.012-3.01 9.135-2.007 2.123-4.9 3.185-8.68 3.185-3.78 0-6.673-1.062-8.68-3.185-2.007-2.123-3.01-5.168-3.01-9.135V13.76zm36 1.75V51h-6.93V2h9.66l7.91 29.33V2h6.86v49h-7.91l-9.59-35.49zm22.84-1.75c0-3.967.945-7.012 2.835-9.135 1.89-2.123 4.725-3.185 8.505-3.185 3.78 0 6.615 1.062 8.505 3.185 1.89 2.123 2.835 5.168 2.835 9.135v1.54h-7.28v-2.03c0-1.773-.339-3.022-1.015-3.745-.677-.723-1.622-1.085-2.835-1.085-1.214 0-2.159.362-2.835 1.085-.677.723-1.015 1.972-1.015 3.745 0 1.68.373 3.162 1.12 4.445a18.477 18.477 0 002.8 3.64 73.01 73.01 0 003.605 3.43 34.286 34.286 0 013.605 3.745c1.12 1.353 2.053 2.893 2.8 4.62.746 1.727 1.12 3.757 1.12 6.09 0 3.967-.969 7.012-2.905 9.135-1.937 2.123-4.795 3.185-8.575 3.185-3.78 0-6.639-1.062-8.575-3.185-1.937-2.123-2.905-5.168-2.905-9.135v-3.01h7.28v3.5c0 1.773.362 3.01 1.085 3.71.723.7 1.691 1.05 2.905 1.05 1.213 0 2.181-.35 2.905-1.05.723-.7 1.085-1.937 1.085-3.71 0-1.68-.374-3.162-1.12-4.445a18.516 18.516 0 00-2.8-3.64 73.374 73.374 0 00-3.605-3.43 34.258 34.258 0 01-3.605-3.745c-1.12-1.353-2.053-2.893-2.8-4.62-.747-1.727-1.12-3.757-1.12-6.09zM118 2h23.8v7h-8.05v42h-7.7V9H118V2zm44.05 49a23.62 23.62 0 00-.28-.91 6.974 6.974 0 01-.245-1.05 12.86 12.86 0 01-.14-1.61 69.126 69.126 0 01-.035-2.45v-7.7c0-2.287-.397-3.897-1.19-4.83-.794-.933-2.077-1.4-3.85-1.4h-2.66V51h-7.7V2h11.62c4.013 0 6.918.933 8.715 2.8 1.796 1.867 2.695 4.69 2.695 8.47v3.85c0 5.04-1.68 8.353-5.04 9.94 1.96.793 3.301 2.088 4.025 3.885.723 1.797 1.085 3.978 1.085 6.545v7.56c0 1.213.046 2.275.14 3.185.093.91.326 1.832.7 2.765h-7.84zm-8.4-42v15.05h3.01c1.446 0 2.578-.373 3.395-1.12.816-.747 1.225-2.1 1.225-4.06v-4.83c0-1.773-.315-3.057-.945-3.85-.63-.793-1.622-1.19-2.975-1.19h-3.71zm28.58-7v37.8c0 1.773.361 3.01 1.085 3.71.723.7 1.691 1.05 2.905 1.05 1.213 0 2.181-.35 2.905-1.05.723-.7 1.085-1.937 1.085-3.71V2h7.28v37.31c0 3.967-.969 7.012-2.905 9.135-1.937 2.123-4.795 3.185-8.575 3.185-3.78 0-6.639-1.062-8.575-3.185-1.937-2.123-2.905-5.168-2.905-9.135V2h7.7zm42.34 0h23.8v7h-8.05v42h-7.7V9h-8.05V2z" fill="#fff"/><path d="M201.147 27.464l20-25v50l-20-25z" fill="#00A4E5"/></g><defs><filter id="filter0_d" x=".8" y="0" width="251.57" height="63" filterUnits="userSpaceOnUse" color-interpolation-filters="sRGB"><feFlood flood-opacity="0" result="BackgroundImageFix"/><feColorMatrix in="SourceAlpha" values="0 0 0 0 0 0 0 0 0 0 0 0 0 0 0 0 0 0 127 0"/><feOffset dy="4"/><feGaussianBlur stdDeviation="2"/><feColorMatrix values="0 0 0 0 0 0 0 0 0 0 0 0 0 0 0 0 0 0 0.25 0"/><feBlend in2="BackgroundImageFix" result="effect1_dropShadow"/><feBlend in="SourceGraphic" in2="effect1_dropShadow" result="shape"/></filter></defs></svg>